<svg width="83" height="75" viewBox="0 0 83 75" fill="none" xmlns="http://www.w3.org/2000/svg">
<path d="M16.2656 65C16.2656 65.862 16.1042 66.6003 15.7812 67.2148C15.4609 67.8268 15.0234 68.2956 14.4687 68.6211C13.9167 68.9466 13.2904 69.1094 12.5898 69.1094C11.8893 69.1094 11.2617 68.9466 10.707 68.6211C10.1549 68.293 9.71745 67.8229 9.39453 67.2109C9.07422 66.5964 8.91406 65.8594 8.91406 65C8.91406 64.138 9.07422 63.401 9.39453 62.7891C9.71745 62.1745 10.1549 61.7044 10.707 61.3789C11.2617 61.0534 11.8893 60.8906 12.5898 60.8906C13.2904 60.8906 13.9167 61.0534 14.4687 61.3789C15.0234 61.7044 15.4609 62.1745 15.7812 62.7891C16.1042 63.401 16.2656 64.138 16.2656 65ZM14.8086 65C14.8086 64.3932 14.7135 63.8815 14.5234 63.4648C14.3359 63.0456 14.0755 62.7292 13.7422 62.5156C13.4089 62.2995 13.0247 62.1914 12.5898 62.1914C12.1549 62.1914 11.7708 62.2995 11.4375 62.5156C11.1042 62.7292 10.8424 63.0456 10.6523 63.4648C10.4648 63.8815 10.3711 64.3932 10.3711 65C10.3711 65.6068 10.4648 66.1198 10.6523 66.5391C10.8424 66.9557 11.1042 67.2721 11.4375 67.4883C11.7708 67.7018 12.1549 67.8086 12.5898 67.8086C13.0247 67.8086 13.4089 67.7018 13.7422 67.4883C14.0755 67.2721 14.3359 66.9557 14.5234 66.5391C14.7135 66.1198 14.8086 65.6068 14.8086 65ZM18.8115 69L17.1162 63H18.5576L19.6123 67.2187H19.667L20.7451 63H22.1709L23.249 67.1953H23.3076L24.3467 63H25.792L24.0928 69H22.6201L21.4951 64.9453H21.4131L20.2881 69H18.8115ZM28.1934 65.4844V69H26.7793V63H28.1309V64.0195H28.2012C28.3392 63.6836 28.5592 63.4167 28.8613 63.2187C29.166 63.0208 29.5423 62.9219 29.9902 62.9219C30.4043 62.9219 30.765 63.0104 31.0723 63.1875C31.3822 63.3646 31.6217 63.6211 31.791 63.957C31.9629 64.293 32.0475 64.7005 32.0449 65.1797V69H30.6309V65.3984C30.6309 64.9974 30.5267 64.6836 30.3184 64.457C30.1126 64.2305 29.8275 64.1172 29.4629 64.1172C29.2155 64.1172 28.9954 64.1719 28.8027 64.2812C28.6126 64.388 28.4629 64.543 28.3535 64.7461C28.2467 64.9492 28.1934 65.1953 28.1934 65.4844ZM37.8926 63.1992C37.8561 62.8581 37.7025 62.5924 37.4316 62.4023C37.1634 62.2122 36.8145 62.1172 36.3848 62.1172C36.0827 62.1172 35.8236 62.1628 35.6074 62.2539C35.3913 62.3451 35.2259 62.4687 35.1113 62.625C34.9967 62.7812 34.9382 62.9596 34.9355 63.1602C34.9355 63.3268 34.9733 63.4714 35.0488 63.5937C35.127 63.7161 35.2324 63.8203 35.3652 63.9062C35.498 63.9896 35.6452 64.0599 35.8066 64.1172C35.9681 64.1745 36.1309 64.2227 36.2949 64.2617L37.0449 64.4492C37.347 64.5195 37.6374 64.6146 37.916 64.7344C38.1973 64.8542 38.4486 65.0052 38.6699 65.1875C38.8939 65.3698 39.071 65.5898 39.2012 65.8477C39.3314 66.1055 39.3965 66.4076 39.3965 66.7539C39.3965 67.2227 39.2767 67.6354 39.0371 67.9922C38.7975 68.3464 38.4512 68.6237 37.998 68.8242C37.5475 69.0221 37.002 69.1211 36.3613 69.1211C35.7389 69.1211 35.1986 69.0247 34.7402 68.832C34.2845 68.6393 33.9277 68.3581 33.6699 67.9883C33.4147 67.6185 33.2767 67.168 33.2559 66.6367H34.6816C34.7025 66.9154 34.7884 67.1471 34.9395 67.332C35.0905 67.5169 35.2871 67.6549 35.5293 67.7461C35.7741 67.8372 36.0475 67.8828 36.3496 67.8828C36.6647 67.8828 36.9408 67.8359 37.1777 67.7422C37.4173 67.6458 37.6048 67.513 37.7402 67.3437C37.8757 67.1719 37.9447 66.9714 37.9473 66.7422C37.9447 66.5339 37.8835 66.362 37.7637 66.2266C37.6439 66.0885 37.4759 65.974 37.2598 65.8828C37.0462 65.7891 36.7962 65.7057 36.5098 65.6328L35.5996 65.3984C34.9408 65.2292 34.4199 64.9727 34.0371 64.6289C33.6569 64.2826 33.4668 63.8229 33.4668 63.25C33.4668 62.7786 33.5944 62.3659 33.8496 62.0117C34.1074 61.6576 34.4577 61.3828 34.9004 61.1875C35.3431 60.9896 35.8444 60.8906 36.4043 60.8906C36.972 60.8906 37.4694 60.9896 37.8965 61.1875C38.3262 61.3828 38.6634 61.6549 38.9082 62.0039C39.153 62.3503 39.2793 62.7487 39.2871 63.1992H37.8926ZM43.6221 63V64.0937H40.1729V63H43.6221ZM41.0244 61.5625H42.4385V67.1953C42.4385 67.3854 42.4671 67.5313 42.5244 67.6328C42.5843 67.7318 42.6624 67.7995 42.7588 67.8359C42.8551 67.8724 42.9619 67.8906 43.0791 67.8906C43.1676 67.8906 43.2484 67.8841 43.3213 67.8711C43.3968 67.8581 43.4541 67.8464 43.4932 67.8359L43.7314 68.9414C43.6559 68.9674 43.5479 68.9961 43.4072 69.0273C43.2692 69.0586 43.0999 69.0768 42.8994 69.082C42.5452 69.0924 42.2262 69.0391 41.9424 68.9219C41.6585 68.8021 41.4333 68.6172 41.2666 68.3672C41.1025 68.1172 41.0218 67.8047 41.0244 67.4297V61.5625ZM47.3574 69.1172C46.7715 69.1172 46.2637 68.9883 45.834 68.7305C45.4043 68.4727 45.071 68.112 44.834 67.6484C44.5996 67.1849 44.4824 66.6432 44.4824 66.0234C44.4824 65.4036 44.5996 64.8607 44.834 64.3945C45.071 63.9284 45.4043 63.5664 45.834 63.3086C46.2637 63.0508 46.7715 62.9219 47.3574 62.9219C47.9434 62.9219 48.4512 63.0508 48.8809 63.3086C49.3105 63.5664 49.6426 63.9284 49.877 64.3945C50.1139 64.8607 50.2324 65.4036 50.2324 66.0234C50.2324 66.6432 50.1139 67.1849 49.877 67.6484C49.6426 68.112 49.3105 68.4727 48.8809 68.7305C48.4512 68.9883 47.9434 69.1172 47.3574 69.1172ZM47.3652 67.9844C47.6829 67.9844 47.9486 67.8971 48.1621 67.7227C48.3757 67.5456 48.5345 67.3086 48.6387 67.0117C48.7454 66.7148 48.7988 66.3841 48.7988 66.0195C48.7988 65.6523 48.7454 65.3203 48.6387 65.0234C48.5345 64.724 48.3757 64.4857 48.1621 64.3086C47.9486 64.1315 47.6829 64.043 47.3652 64.043C47.0397 64.043 46.7689 64.1315 46.5527 64.3086C46.3392 64.4857 46.179 64.724 46.0723 65.0234C45.9681 65.3203 45.916 65.6523 45.916 66.0195C45.916 66.3841 45.9681 66.7148 46.0723 67.0117C46.179 67.3086 46.3392 67.5456 46.5527 67.7227C46.7689 67.8971 47.0397 67.9844 47.3652 67.9844ZM51.4326 69V63H52.8037V64H52.8662C52.9756 63.6536 53.1631 63.3867 53.4287 63.1992C53.6969 63.0091 54.0029 62.9141 54.3467 62.9141C54.4248 62.9141 54.512 62.918 54.6084 62.9258C54.7074 62.931 54.7894 62.9401 54.8545 62.9531V64.2539C54.7946 64.2331 54.6995 64.2148 54.5693 64.1992C54.4417 64.181 54.318 64.1719 54.1982 64.1719C53.9404 64.1719 53.7087 64.2279 53.5029 64.3398C53.2998 64.4492 53.1396 64.6016 53.0225 64.7969C52.9053 64.9922 52.8467 65.2174 52.8467 65.4727V69H51.4326ZM57.4131 69.1211C57.0329 69.1211 56.6904 69.0534 56.3857 68.918C56.0837 68.7799 55.8441 68.5768 55.667 68.3086C55.4925 68.0404 55.4053 67.7096 55.4053 67.3164C55.4053 66.9779 55.4678 66.6979 55.5928 66.4766C55.7178 66.2552 55.8883 66.0781 56.1045 65.9453C56.3206 65.8125 56.5641 65.7122 56.835 65.6445C57.1084 65.5742 57.391 65.5234 57.6826 65.4922C58.0342 65.4557 58.3193 65.4232 58.5381 65.3945C58.7568 65.3633 58.9157 65.3164 59.0146 65.2539C59.1162 65.1888 59.167 65.0885 59.167 64.9531V64.9297C59.167 64.6354 59.0798 64.4076 58.9053 64.2461C58.7308 64.0846 58.4795 64.0039 58.1514 64.0039C57.805 64.0039 57.5303 64.0794 57.3271 64.2305C57.1266 64.3815 56.9912 64.5599 56.9209 64.7656L55.6006 64.5781C55.7048 64.2135 55.8766 63.9089 56.1162 63.6641C56.3558 63.4167 56.6488 63.2318 56.9951 63.1094C57.3415 62.9844 57.7243 62.9219 58.1436 62.9219C58.4326 62.9219 58.7204 62.9557 59.0068 63.0234C59.2933 63.0911 59.555 63.2031 59.792 63.3594C60.029 63.513 60.2191 63.7227 60.3623 63.9883C60.5081 64.2539 60.5811 64.5859 60.5811 64.9844V69H59.2217V68.1758H59.1748C59.0889 68.3424 58.9678 68.4987 58.8115 68.6445C58.6579 68.7878 58.4639 68.9036 58.2295 68.9922C57.9977 69.0781 57.7256 69.1211 57.4131 69.1211ZM57.7803 68.082C58.0641 68.082 58.3102 68.026 58.5186 67.9141C58.7269 67.7995 58.887 67.6484 58.999 67.4609C59.1136 67.2734 59.1709 67.069 59.1709 66.8477V66.1406C59.1266 66.1771 59.0511 66.2109 58.9443 66.2422C58.8402 66.2734 58.723 66.3008 58.5928 66.3242C58.4626 66.3477 58.3337 66.3685 58.2061 66.3867C58.0785 66.4049 57.9678 66.4206 57.874 66.4336C57.6631 66.4622 57.4743 66.5091 57.3076 66.5742C57.141 66.6393 57.0094 66.7305 56.9131 66.8477C56.8167 66.9622 56.7686 67.1107 56.7686 67.293C56.7686 67.5534 56.8636 67.75 57.0537 67.8828C57.2438 68.0156 57.486 68.082 57.7803 68.082ZM64.6123 71.375C64.1045 71.375 63.6683 71.306 63.3037 71.168C62.9391 71.0326 62.6462 70.8503 62.4248 70.6211C62.2035 70.3919 62.0498 70.138 61.9639 69.8594L63.2373 69.5508C63.2946 69.668 63.3779 69.7839 63.4873 69.8984C63.5967 70.0156 63.7438 70.112 63.9287 70.1875C64.1162 70.2656 64.3519 70.3047 64.6357 70.3047C65.0368 70.3047 65.3688 70.207 65.6318 70.0117C65.8949 69.819 66.0264 69.5013 66.0264 69.0586V67.9219H65.9561C65.8831 68.0677 65.7764 68.2174 65.6357 68.3711C65.4977 68.5247 65.3141 68.6536 65.085 68.7578C64.8584 68.862 64.5732 68.9141 64.2295 68.9141C63.7686 68.9141 63.3506 68.806 62.9756 68.5898C62.6032 68.3711 62.3063 68.0456 62.085 67.6133C61.8662 67.1784 61.7568 66.6341 61.7568 65.9805C61.7568 65.3216 61.8662 64.7656 62.085 64.3125C62.3063 63.8568 62.6045 63.5117 62.9795 63.2773C63.3545 63.0404 63.7725 62.9219 64.2334 62.9219C64.585 62.9219 64.874 62.9818 65.1006 63.1016C65.3298 63.2187 65.512 63.3607 65.6475 63.5273C65.7829 63.6914 65.8857 63.8464 65.9561 63.9922H66.0342V63H67.4287V69.0977C67.4287 69.6107 67.3063 70.0352 67.0615 70.3711C66.8167 70.707 66.4821 70.9583 66.0576 71.125C65.6331 71.2917 65.1514 71.375 64.6123 71.375ZM64.624 67.8047C64.9235 67.8047 65.1787 67.7318 65.3896 67.5859C65.6006 67.4401 65.7607 67.2305 65.8701 66.957C65.9795 66.6836 66.0342 66.3555 66.0342 65.9727C66.0342 65.5951 65.9795 65.2643 65.8701 64.9805C65.7633 64.6966 65.6045 64.4766 65.3936 64.3203C65.1852 64.1615 64.9287 64.082 64.624 64.082C64.3089 64.082 64.0459 64.1641 63.835 64.3281C63.624 64.4922 63.4652 64.7174 63.3584 65.0039C63.2516 65.2878 63.1982 65.6107 63.1982 65.9727C63.1982 66.3398 63.2516 66.6615 63.3584 66.9375C63.4678 67.2109 63.6279 67.4245 63.8389 67.5781C64.0524 67.7292 64.3141 67.8047 64.624 67.8047ZM71.5342 69.1172C70.9326 69.1172 70.4131 68.9922 69.9756 68.7422C69.5407 68.4896 69.2061 68.1328 68.9717 67.6719C68.7373 67.2083 68.6201 66.6628 68.6201 66.0352C68.6201 65.418 68.7373 64.8763 68.9717 64.4102C69.2087 63.9414 69.5394 63.5768 69.9639 63.3164C70.3883 63.0534 70.887 62.9219 71.46 62.9219C71.8298 62.9219 72.1787 62.9818 72.5068 63.1016C72.8376 63.2187 73.1292 63.401 73.3818 63.6484C73.637 63.8958 73.8376 64.2109 73.9834 64.5937C74.1292 64.974 74.2021 65.4271 74.2021 65.9531V66.3867H69.2842V65.4336H72.8467C72.8441 65.1628 72.7855 64.9219 72.6709 64.7109C72.5563 64.4974 72.3962 64.3294 72.1904 64.207C71.9873 64.0846 71.7503 64.0234 71.4795 64.0234C71.1904 64.0234 70.9365 64.0937 70.7178 64.2344C70.499 64.3724 70.3285 64.5547 70.2061 64.7812C70.0863 65.0052 70.0251 65.2513 70.0225 65.5195V66.3516C70.0225 66.7005 70.0863 67 70.2139 67.25C70.3415 67.4974 70.5199 67.6875 70.749 67.8203C70.9782 67.9505 71.2464 68.0156 71.5537 68.0156C71.7594 68.0156 71.9456 67.987 72.1123 67.9297C72.279 67.8698 72.4235 67.7826 72.5459 67.668C72.6683 67.5534 72.7607 67.4115 72.8232 67.2422L74.1436 67.3906C74.0602 67.7396 73.9014 68.0443 73.667 68.3047C73.4352 68.5625 73.1383 68.763 72.7764 68.9062C72.4144 69.0469 72.0003 69.1172 71.5342 69.1172Z" fill="#F0EBEB"/>
<line x1="10.5" y1="58" x2="10.5" y2="32" stroke="#F6F6F6" stroke-width="3"/>
<line x1="71.5" y1="58" x2="71.5" y2="32" stroke="#F6F6F6" stroke-width="3"/>
<path d="M41 9L76.507 26.25H5.49296L41 9Z" fill="#F6F6F6"/>
<line x1="9" y1="30.5" x2="73" y2="30.5" stroke="#F6F6F6" stroke-width="3"/>
<rect x="15" y="50" width="8" height="8" fill="#F6F6F6"/>
<rect x="15" y="39" width="8" height="8" fill="#90FFA9"/>
<rect x="26" y="50" width="8" height="8" fill="#90FFA9"/>
<rect x="59" y="50" width="8" height="8" fill="#90FFA9"/>
<rect x="59" y="39" width="8" height="8" fill="#F6F6F6"/>
</svg>
